G04 #@! TF.GenerationSoftware,KiCad,Pcbnew,8.0.2-1*
G04 #@! TF.CreationDate,2024-11-27T21:54:45+07:00*
G04 #@! TF.ProjectId,v1,76312e6b-6963-4616-945f-706362585858,rev?*
G04 #@! TF.SameCoordinates,Original*
G04 #@! TF.FileFunction,Legend,Bot*
G04 #@! TF.FilePolarity,Positive*
%FSLAX46Y46*%
G04 Gerber Fmt 4.6, Leading zero omitted, Abs format (unit mm)*
G04 Created by KiCad (PCBNEW 8.0.2-1) date 2024-11-27 21:54:45*
%MOMM*%
%LPD*%
G01*
G04 APERTURE LIST*
G04 Aperture macros list*
%AMRoundRect*
0 Rectangle with rounded corners*
0 $1 Rounding radius*
0 $2 $3 $4 $5 $6 $7 $8 $9 X,Y pos of 4 corners*
0 Add a 4 corners polygon primitive as box body*
4,1,4,$2,$3,$4,$5,$6,$7,$8,$9,$2,$3,0*
0 Add four circle primitives for the rounded corners*
1,1,$1+$1,$2,$3*
1,1,$1+$1,$4,$5*
1,1,$1+$1,$6,$7*
1,1,$1+$1,$8,$9*
0 Add four rect primitives between the rounded corners*
20,1,$1+$1,$2,$3,$4,$5,0*
20,1,$1+$1,$4,$5,$6,$7,0*
20,1,$1+$1,$6,$7,$8,$9,0*
20,1,$1+$1,$8,$9,$2,$3,0*%
G04 Aperture macros list end*
%ADD10C,0.150000*%
%ADD11C,0.127000*%
%ADD12RoundRect,0.102000X1.625000X0.952500X-1.625000X0.952500X-1.625000X-0.952500X1.625000X-0.952500X0*%
G04 APERTURE END LIST*
D10*
X144011904Y-91804819D02*
X144011904Y-92614342D01*
X144011904Y-92614342D02*
X143964285Y-92709580D01*
X143964285Y-92709580D02*
X143916666Y-92757200D01*
X143916666Y-92757200D02*
X143821428Y-92804819D01*
X143821428Y-92804819D02*
X143630952Y-92804819D01*
X143630952Y-92804819D02*
X143535714Y-92757200D01*
X143535714Y-92757200D02*
X143488095Y-92709580D01*
X143488095Y-92709580D02*
X143440476Y-92614342D01*
X143440476Y-92614342D02*
X143440476Y-91804819D01*
X142440476Y-92804819D02*
X143011904Y-92804819D01*
X142726190Y-92804819D02*
X142726190Y-91804819D01*
X142726190Y-91804819D02*
X142821428Y-91947676D01*
X142821428Y-91947676D02*
X142916666Y-92042914D01*
X142916666Y-92042914D02*
X143011904Y-92090533D01*
D11*
X152250000Y-104750000D02*
X134250000Y-104750000D01*
X134250000Y-82050000D02*
X134250000Y-104750000D01*
X138750000Y-82050000D02*
X134250000Y-82050000D01*
X152250000Y-82050000D02*
X152250000Y-104750000D01*
X147750000Y-80750000D02*
X138750000Y-80750000D01*
X138750000Y-82050000D02*
X138750000Y-80750000D01*
X147750000Y-82050000D02*
X147750000Y-80750000D01*
X152250000Y-82050000D02*
X147750000Y-82050000D01*
%LPC*%
D12*
X151550000Y-83500000D03*
X151550000Y-86040000D03*
X151550000Y-88580000D03*
X151550000Y-91120000D03*
X151550000Y-93660000D03*
X151550000Y-96200000D03*
X151550000Y-98740000D03*
X151550000Y-101280000D03*
X134950000Y-101280000D03*
X134950000Y-98740000D03*
X134950000Y-96200000D03*
X134950000Y-93660000D03*
X134950000Y-91120000D03*
X134950000Y-88580000D03*
X134950000Y-86040000D03*
X134950000Y-83500000D03*
%LPD*%
M02*
