G04 #@! TF.GenerationSoftware,KiCad,Pcbnew,8.0.2-1*
G04 #@! TF.CreationDate,2024-11-27T21:54:45+07:00*
G04 #@! TF.ProjectId,v1,76312e6b-6963-4616-945f-706362585858,rev?*
G04 #@! TF.SameCoordinates,Original*
G04 #@! TF.FileFunction,Legend,Top*
G04 #@! TF.FilePolarity,Positive*
%FSLAX46Y46*%
G04 Gerber Fmt 4.6, Leading zero omitted, Abs format (unit mm)*
G04 Created by KiCad (PCBNEW 8.0.2-1) date 2024-11-27 21:54:45*
%MOMM*%
%LPD*%
G01*
G04 APERTURE LIST*
G04 Aperture macros list*
%AMRoundRect*
0 Rectangle with rounded corners*
0 $1 Rounding radius*
0 $2 $3 $4 $5 $6 $7 $8 $9 X,Y pos of 4 corners*
0 Add a 4 corners polygon primitive as box body*
4,1,4,$2,$3,$4,$5,$6,$7,$8,$9,$2,$3,0*
0 Add four circle primitives for the rounded corners*
1,1,$1+$1,$2,$3*
1,1,$1+$1,$4,$5*
1,1,$1+$1,$6,$7*
1,1,$1+$1,$8,$9*
0 Add four rect primitives between the rounded corners*
20,1,$1+$1,$2,$3,$4,$5,0*
20,1,$1+$1,$4,$5,$6,$7,0*
20,1,$1+$1,$6,$7,$8,$9,0*
20,1,$1+$1,$8,$9,$2,$3,0*%
G04 Aperture macros list end*
%ADD10C,0.150000*%
%ADD11C,0.120000*%
%ADD12R,1.400000X1.600000*%
%ADD13R,0.900000X1.500000*%
%ADD14R,1.500000X0.900000*%
%ADD15RoundRect,0.250000X-0.475000X0.337500X-0.475000X-0.337500X0.475000X-0.337500X0.475000X0.337500X0*%
G04 APERTURE END LIST*
D10*
X145907200Y-98583332D02*
X145954819Y-98440475D01*
X145954819Y-98440475D02*
X145954819Y-98202380D01*
X145954819Y-98202380D02*
X145907200Y-98107142D01*
X145907200Y-98107142D02*
X145859580Y-98059523D01*
X145859580Y-98059523D02*
X145764342Y-98011904D01*
X145764342Y-98011904D02*
X145669104Y-98011904D01*
X145669104Y-98011904D02*
X145573866Y-98059523D01*
X145573866Y-98059523D02*
X145526247Y-98107142D01*
X145526247Y-98107142D02*
X145478628Y-98202380D01*
X145478628Y-98202380D02*
X145431009Y-98392856D01*
X145431009Y-98392856D02*
X145383390Y-98488094D01*
X145383390Y-98488094D02*
X145335771Y-98535713D01*
X145335771Y-98535713D02*
X145240533Y-98583332D01*
X145240533Y-98583332D02*
X145145295Y-98583332D01*
X145145295Y-98583332D02*
X145050057Y-98535713D01*
X145050057Y-98535713D02*
X145002438Y-98488094D01*
X145002438Y-98488094D02*
X144954819Y-98392856D01*
X144954819Y-98392856D02*
X144954819Y-98154761D01*
X144954819Y-98154761D02*
X145002438Y-98011904D01*
X144954819Y-97678570D02*
X145954819Y-97440475D01*
X145954819Y-97440475D02*
X145240533Y-97249999D01*
X145240533Y-97249999D02*
X145954819Y-97059523D01*
X145954819Y-97059523D02*
X144954819Y-96821428D01*
X145954819Y-95916666D02*
X145954819Y-96488094D01*
X145954819Y-96202380D02*
X144954819Y-96202380D01*
X144954819Y-96202380D02*
X145097676Y-96297618D01*
X145097676Y-96297618D02*
X145192914Y-96392856D01*
X145192914Y-96392856D02*
X145240533Y-96488094D01*
X138704819Y-97738094D02*
X137704819Y-97738094D01*
X137704819Y-97738094D02*
X137704819Y-97499999D01*
X137704819Y-97499999D02*
X137752438Y-97357142D01*
X137752438Y-97357142D02*
X137847676Y-97261904D01*
X137847676Y-97261904D02*
X137942914Y-97214285D01*
X137942914Y-97214285D02*
X138133390Y-97166666D01*
X138133390Y-97166666D02*
X138276247Y-97166666D01*
X138276247Y-97166666D02*
X138466723Y-97214285D01*
X138466723Y-97214285D02*
X138561961Y-97261904D01*
X138561961Y-97261904D02*
X138657200Y-97357142D01*
X138657200Y-97357142D02*
X138704819Y-97499999D01*
X138704819Y-97499999D02*
X138704819Y-97738094D01*
X138038152Y-96309523D02*
X138704819Y-96309523D01*
X137657200Y-96547618D02*
X138371485Y-96785713D01*
X138371485Y-96785713D02*
X138371485Y-96166666D01*
X136804819Y-92564285D02*
X136804819Y-93135713D01*
X136804819Y-92849999D02*
X135804819Y-92849999D01*
X135804819Y-92849999D02*
X135947676Y-92945237D01*
X135947676Y-92945237D02*
X136042914Y-93040475D01*
X136042914Y-93040475D02*
X136090533Y-93135713D01*
X142511905Y-102954819D02*
X142511905Y-101954819D01*
X142511905Y-101954819D02*
X142750000Y-101954819D01*
X142750000Y-101954819D02*
X142892857Y-102002438D01*
X142892857Y-102002438D02*
X142988095Y-102097676D01*
X142988095Y-102097676D02*
X143035714Y-102192914D01*
X143035714Y-102192914D02*
X143083333Y-102383390D01*
X143083333Y-102383390D02*
X143083333Y-102526247D01*
X143083333Y-102526247D02*
X143035714Y-102716723D01*
X143035714Y-102716723D02*
X142988095Y-102811961D01*
X142988095Y-102811961D02*
X142892857Y-102907200D01*
X142892857Y-102907200D02*
X142750000Y-102954819D01*
X142750000Y-102954819D02*
X142511905Y-102954819D01*
X143416667Y-101954819D02*
X144035714Y-101954819D01*
X144035714Y-101954819D02*
X143702381Y-102335771D01*
X143702381Y-102335771D02*
X143845238Y-102335771D01*
X143845238Y-102335771D02*
X143940476Y-102383390D01*
X143940476Y-102383390D02*
X143988095Y-102431009D01*
X143988095Y-102431009D02*
X144035714Y-102526247D01*
X144035714Y-102526247D02*
X144035714Y-102764342D01*
X144035714Y-102764342D02*
X143988095Y-102859580D01*
X143988095Y-102859580D02*
X143940476Y-102907200D01*
X143940476Y-102907200D02*
X143845238Y-102954819D01*
X143845238Y-102954819D02*
X143559524Y-102954819D01*
X143559524Y-102954819D02*
X143464286Y-102907200D01*
X143464286Y-102907200D02*
X143416667Y-102859580D01*
X139385714Y-104854819D02*
X138814286Y-104854819D01*
X139100000Y-104854819D02*
X139100000Y-103854819D01*
X139100000Y-103854819D02*
X139004762Y-103997676D01*
X139004762Y-103997676D02*
X138909524Y-104092914D01*
X138909524Y-104092914D02*
X138814286Y-104140533D01*
X148454819Y-97988094D02*
X147454819Y-97988094D01*
X147454819Y-97988094D02*
X147454819Y-97749999D01*
X147454819Y-97749999D02*
X147502438Y-97607142D01*
X147502438Y-97607142D02*
X147597676Y-97511904D01*
X147597676Y-97511904D02*
X147692914Y-97464285D01*
X147692914Y-97464285D02*
X147883390Y-97416666D01*
X147883390Y-97416666D02*
X148026247Y-97416666D01*
X148026247Y-97416666D02*
X148216723Y-97464285D01*
X148216723Y-97464285D02*
X148311961Y-97511904D01*
X148311961Y-97511904D02*
X148407200Y-97607142D01*
X148407200Y-97607142D02*
X148454819Y-97749999D01*
X148454819Y-97749999D02*
X148454819Y-97988094D01*
X147550057Y-97035713D02*
X147502438Y-96988094D01*
X147502438Y-96988094D02*
X147454819Y-96892856D01*
X147454819Y-96892856D02*
X147454819Y-96654761D01*
X147454819Y-96654761D02*
X147502438Y-96559523D01*
X147502438Y-96559523D02*
X147550057Y-96511904D01*
X147550057Y-96511904D02*
X147645295Y-96464285D01*
X147645295Y-96464285D02*
X147740533Y-96464285D01*
X147740533Y-96464285D02*
X147883390Y-96511904D01*
X147883390Y-96511904D02*
X148454819Y-97083332D01*
X148454819Y-97083332D02*
X148454819Y-96464285D01*
X150354819Y-101114285D02*
X150354819Y-101685713D01*
X150354819Y-101399999D02*
X149354819Y-101399999D01*
X149354819Y-101399999D02*
X149497676Y-101495237D01*
X149497676Y-101495237D02*
X149592914Y-101590475D01*
X149592914Y-101590475D02*
X149640533Y-101685713D01*
X142511905Y-92454819D02*
X142511905Y-91454819D01*
X142511905Y-91454819D02*
X142750000Y-91454819D01*
X142750000Y-91454819D02*
X142892857Y-91502438D01*
X142892857Y-91502438D02*
X142988095Y-91597676D01*
X142988095Y-91597676D02*
X143035714Y-91692914D01*
X143035714Y-91692914D02*
X143083333Y-91883390D01*
X143083333Y-91883390D02*
X143083333Y-92026247D01*
X143083333Y-92026247D02*
X143035714Y-92216723D01*
X143035714Y-92216723D02*
X142988095Y-92311961D01*
X142988095Y-92311961D02*
X142892857Y-92407200D01*
X142892857Y-92407200D02*
X142750000Y-92454819D01*
X142750000Y-92454819D02*
X142511905Y-92454819D01*
X144035714Y-92454819D02*
X143464286Y-92454819D01*
X143750000Y-92454819D02*
X143750000Y-91454819D01*
X143750000Y-91454819D02*
X143654762Y-91597676D01*
X143654762Y-91597676D02*
X143559524Y-91692914D01*
X143559524Y-91692914D02*
X143464286Y-91740533D01*
X147685714Y-90554819D02*
X147114286Y-90554819D01*
X147400000Y-90554819D02*
X147400000Y-89554819D01*
X147400000Y-89554819D02*
X147304762Y-89697676D01*
X147304762Y-89697676D02*
X147209524Y-89792914D01*
X147209524Y-89792914D02*
X147114286Y-89840533D01*
X134359580Y-89554166D02*
X134407200Y-89601785D01*
X134407200Y-89601785D02*
X134454819Y-89744642D01*
X134454819Y-89744642D02*
X134454819Y-89839880D01*
X134454819Y-89839880D02*
X134407200Y-89982737D01*
X134407200Y-89982737D02*
X134311961Y-90077975D01*
X134311961Y-90077975D02*
X134216723Y-90125594D01*
X134216723Y-90125594D02*
X134026247Y-90173213D01*
X134026247Y-90173213D02*
X133883390Y-90173213D01*
X133883390Y-90173213D02*
X133692914Y-90125594D01*
X133692914Y-90125594D02*
X133597676Y-90077975D01*
X133597676Y-90077975D02*
X133502438Y-89982737D01*
X133502438Y-89982737D02*
X133454819Y-89839880D01*
X133454819Y-89839880D02*
X133454819Y-89744642D01*
X133454819Y-89744642D02*
X133502438Y-89601785D01*
X133502438Y-89601785D02*
X133550057Y-89554166D01*
X133550057Y-89173213D02*
X133502438Y-89125594D01*
X133502438Y-89125594D02*
X133454819Y-89030356D01*
X133454819Y-89030356D02*
X133454819Y-88792261D01*
X133454819Y-88792261D02*
X133502438Y-88697023D01*
X133502438Y-88697023D02*
X133550057Y-88649404D01*
X133550057Y-88649404D02*
X133645295Y-88601785D01*
X133645295Y-88601785D02*
X133740533Y-88601785D01*
X133740533Y-88601785D02*
X133883390Y-88649404D01*
X133883390Y-88649404D02*
X134454819Y-89220832D01*
X134454819Y-89220832D02*
X134454819Y-88601785D01*
X134359580Y-91454166D02*
X134407200Y-91501785D01*
X134407200Y-91501785D02*
X134454819Y-91644642D01*
X134454819Y-91644642D02*
X134454819Y-91739880D01*
X134454819Y-91739880D02*
X134407200Y-91882737D01*
X134407200Y-91882737D02*
X134311961Y-91977975D01*
X134311961Y-91977975D02*
X134216723Y-92025594D01*
X134216723Y-92025594D02*
X134026247Y-92073213D01*
X134026247Y-92073213D02*
X133883390Y-92073213D01*
X133883390Y-92073213D02*
X133692914Y-92025594D01*
X133692914Y-92025594D02*
X133597676Y-91977975D01*
X133597676Y-91977975D02*
X133502438Y-91882737D01*
X133502438Y-91882737D02*
X133454819Y-91739880D01*
X133454819Y-91739880D02*
X133454819Y-91644642D01*
X133454819Y-91644642D02*
X133502438Y-91501785D01*
X133502438Y-91501785D02*
X133550057Y-91454166D01*
X134454819Y-90501785D02*
X134454819Y-91073213D01*
X134454819Y-90787499D02*
X133454819Y-90787499D01*
X133454819Y-90787499D02*
X133597676Y-90882737D01*
X133597676Y-90882737D02*
X133692914Y-90977975D01*
X133692914Y-90977975D02*
X133740533Y-91073213D01*
D11*
X141950000Y-94150000D02*
X144550000Y-94150000D01*
X146500000Y-94250000D02*
X146500000Y-100250000D01*
X140000000Y-94350000D02*
X140000000Y-100150000D01*
X141950000Y-100350000D02*
X144550000Y-100350000D01*
X140950000Y-102350000D02*
X139950000Y-102350000D01*
X139950000Y-102350000D02*
X139950000Y-101350000D01*
X137500000Y-93350000D02*
X137500000Y-100650000D01*
X132000000Y-93350000D02*
X132000000Y-100650000D01*
X132000000Y-100650000D02*
X133150000Y-100650000D01*
X139600000Y-103250000D02*
X146900000Y-103250000D01*
X139600000Y-108750000D02*
X146900000Y-108750000D01*
X146900000Y-108750000D02*
X146900000Y-107600000D01*
X154250000Y-93600000D02*
X153100000Y-93600000D01*
X154250000Y-100900000D02*
X154250000Y-93600000D01*
X148750000Y-100900000D02*
X148750000Y-93600000D01*
X146900000Y-91250000D02*
X139600000Y-91250000D01*
X146900000Y-85750000D02*
X139600000Y-85750000D01*
X139600000Y-85750000D02*
X139600000Y-86900000D01*
X135015000Y-90026248D02*
X135015000Y-90548752D01*
X136485000Y-90026248D02*
X136485000Y-90548752D01*
X137265000Y-90026248D02*
X137265000Y-90548752D01*
X138735000Y-90026248D02*
X138735000Y-90548752D01*
%LPC*%
D12*
X145500000Y-93250000D03*
X145500000Y-101250000D03*
X141000000Y-93250000D03*
X141000000Y-101250000D03*
D13*
X136400000Y-94550000D03*
X133100000Y-94550000D03*
X133100000Y-99450000D03*
X136400000Y-99450000D03*
D14*
X140800000Y-104350000D03*
X140800000Y-107650000D03*
X145700000Y-107650000D03*
X145700000Y-104350000D03*
D13*
X149850000Y-94800000D03*
X153150000Y-94800000D03*
X153150000Y-99700000D03*
X149850000Y-99700000D03*
D14*
X145700000Y-90150000D03*
X145700000Y-86850000D03*
X140800000Y-86850000D03*
X140800000Y-90150000D03*
D15*
X135750000Y-91325000D03*
X135750000Y-89250000D03*
X138000000Y-91325000D03*
X138000000Y-89250000D03*
%LPD*%
M02*
