%TF.GenerationSoftware,KiCad,Pcbnew,8.0.2-1*%
%TF.CreationDate,2024-11-27T21:55:20+07:00*%
%TF.ProjectId,v1,76312e6b-6963-4616-945f-706362585858,rev?*%
%TF.SameCoordinates,Original*%
%TF.FileFunction,Drillmap*%
%TF.FilePolarity,Positive*%
%FSLAX45Y45*%
G04 Gerber Fmt 4.5, Leading zero omitted, Abs format (unit mm)*
G04 Created by KiCad (PCBNEW 8.0.2-1) date 2024-11-27 21:55:20*
%MOMM*%
%LPD*%
G01*
G04 APERTURE LIST*
%ADD10C,0.200000*%
%ADD11C,0.100000*%
G04 APERTURE END LIST*
D10*
X13225000Y-8175000D02*
X13225000Y-9131283D01*
X15425000Y-8175000D02*
X13225000Y-8175000D01*
X15425000Y-9131283D02*
X15425000Y-8175000D01*
X15425000Y-9131283D02*
G75*
G02*
X13225000Y-9131283I-1100000J-593717D01*
G01*
X13225000Y-8175000D02*
X14325000Y-8175000D01*
X15425000Y-8175000D02*
X14325000Y-8175000D01*
D11*
X13160000Y-9710000D02*
X13190000Y-9740000D01*
X13190000Y-9710000D02*
X13160000Y-9740000D01*
X13485000Y-8585000D02*
X13515000Y-8615000D01*
X13515000Y-8585000D02*
X13485000Y-8615000D01*
X13885000Y-9835000D02*
X13915000Y-9865000D01*
X13915000Y-9835000D02*
X13885000Y-9865000D01*
X13935000Y-8910000D02*
X13965000Y-8940000D01*
X13965000Y-8910000D02*
X13935000Y-8940000D01*
X14060000Y-8485000D02*
X14090000Y-8515000D01*
X14090000Y-8485000D02*
X14060000Y-8515000D01*
X14135000Y-9110000D02*
X14165000Y-9140000D01*
X14165000Y-9110000D02*
X14135000Y-9140000D01*
X14410000Y-9135000D02*
X14440000Y-9165000D01*
X14440000Y-9135000D02*
X14410000Y-9165000D01*
X14535000Y-9510000D02*
X14565000Y-9540000D01*
X14565000Y-9510000D02*
X14535000Y-9540000D01*
X14760000Y-10110000D02*
X14790000Y-10140000D01*
X14790000Y-10110000D02*
X14760000Y-10140000D01*
X14810000Y-10660000D02*
X14840000Y-10690000D01*
X14840000Y-10660000D02*
X14810000Y-10690000D01*
X15410000Y-9735000D02*
X15440000Y-9765000D01*
X15440000Y-9735000D02*
X15410000Y-9765000D01*
D10*
X13325777Y-11296484D02*
X13325777Y-11096484D01*
X13325777Y-11096484D02*
X13373396Y-11096484D01*
X13373396Y-11096484D02*
X13401967Y-11106008D01*
X13401967Y-11106008D02*
X13421015Y-11125055D01*
X13421015Y-11125055D02*
X13430539Y-11144103D01*
X13430539Y-11144103D02*
X13440063Y-11182198D01*
X13440063Y-11182198D02*
X13440063Y-11210769D01*
X13440063Y-11210769D02*
X13430539Y-11248865D01*
X13430539Y-11248865D02*
X13421015Y-11267912D01*
X13421015Y-11267912D02*
X13401967Y-11286960D01*
X13401967Y-11286960D02*
X13373396Y-11296484D01*
X13373396Y-11296484D02*
X13325777Y-11296484D01*
X13525777Y-11296484D02*
X13525777Y-11163150D01*
X13525777Y-11201246D02*
X13535301Y-11182198D01*
X13535301Y-11182198D02*
X13544824Y-11172674D01*
X13544824Y-11172674D02*
X13563872Y-11163150D01*
X13563872Y-11163150D02*
X13582920Y-11163150D01*
X13649586Y-11296484D02*
X13649586Y-11163150D01*
X13649586Y-11096484D02*
X13640063Y-11106008D01*
X13640063Y-11106008D02*
X13649586Y-11115531D01*
X13649586Y-11115531D02*
X13659110Y-11106008D01*
X13659110Y-11106008D02*
X13649586Y-11096484D01*
X13649586Y-11096484D02*
X13649586Y-11115531D01*
X13773396Y-11296484D02*
X13754348Y-11286960D01*
X13754348Y-11286960D02*
X13744824Y-11267912D01*
X13744824Y-11267912D02*
X13744824Y-11096484D01*
X13878158Y-11296484D02*
X13859110Y-11286960D01*
X13859110Y-11286960D02*
X13849586Y-11267912D01*
X13849586Y-11267912D02*
X13849586Y-11096484D01*
X14106729Y-11296484D02*
X14106729Y-11096484D01*
X14106729Y-11096484D02*
X14173396Y-11239341D01*
X14173396Y-11239341D02*
X14240063Y-11096484D01*
X14240063Y-11096484D02*
X14240063Y-11296484D01*
X14421015Y-11296484D02*
X14421015Y-11191722D01*
X14421015Y-11191722D02*
X14411491Y-11172674D01*
X14411491Y-11172674D02*
X14392444Y-11163150D01*
X14392444Y-11163150D02*
X14354348Y-11163150D01*
X14354348Y-11163150D02*
X14335301Y-11172674D01*
X14421015Y-11286960D02*
X14401967Y-11296484D01*
X14401967Y-11296484D02*
X14354348Y-11296484D01*
X14354348Y-11296484D02*
X14335301Y-11286960D01*
X14335301Y-11286960D02*
X14325777Y-11267912D01*
X14325777Y-11267912D02*
X14325777Y-11248865D01*
X14325777Y-11248865D02*
X14335301Y-11229817D01*
X14335301Y-11229817D02*
X14354348Y-11220293D01*
X14354348Y-11220293D02*
X14401967Y-11220293D01*
X14401967Y-11220293D02*
X14421015Y-11210769D01*
X14516253Y-11163150D02*
X14516253Y-11363150D01*
X14516253Y-11172674D02*
X14535301Y-11163150D01*
X14535301Y-11163150D02*
X14573396Y-11163150D01*
X14573396Y-11163150D02*
X14592444Y-11172674D01*
X14592444Y-11172674D02*
X14601967Y-11182198D01*
X14601967Y-11182198D02*
X14611491Y-11201246D01*
X14611491Y-11201246D02*
X14611491Y-11258388D01*
X14611491Y-11258388D02*
X14601967Y-11277436D01*
X14601967Y-11277436D02*
X14592444Y-11286960D01*
X14592444Y-11286960D02*
X14573396Y-11296484D01*
X14573396Y-11296484D02*
X14535301Y-11296484D01*
X14535301Y-11296484D02*
X14516253Y-11286960D01*
X14697205Y-11277436D02*
X14706729Y-11286960D01*
X14706729Y-11286960D02*
X14697205Y-11296484D01*
X14697205Y-11296484D02*
X14687682Y-11286960D01*
X14687682Y-11286960D02*
X14697205Y-11277436D01*
X14697205Y-11277436D02*
X14697205Y-11296484D01*
X14697205Y-11172674D02*
X14706729Y-11182198D01*
X14706729Y-11182198D02*
X14697205Y-11191722D01*
X14697205Y-11191722D02*
X14687682Y-11182198D01*
X14687682Y-11182198D02*
X14697205Y-11172674D01*
X14697205Y-11172674D02*
X14697205Y-11191722D01*
D11*
X13035000Y-11610000D02*
X13065000Y-11640000D01*
X13065000Y-11610000D02*
X13035000Y-11640000D01*
D10*
X13363872Y-11516484D02*
X13382920Y-11516484D01*
X13382920Y-11516484D02*
X13401967Y-11526008D01*
X13401967Y-11526008D02*
X13411491Y-11535531D01*
X13411491Y-11535531D02*
X13421015Y-11554579D01*
X13421015Y-11554579D02*
X13430539Y-11592674D01*
X13430539Y-11592674D02*
X13430539Y-11640293D01*
X13430539Y-11640293D02*
X13421015Y-11678388D01*
X13421015Y-11678388D02*
X13411491Y-11697436D01*
X13411491Y-11697436D02*
X13401967Y-11706960D01*
X13401967Y-11706960D02*
X13382920Y-11716484D01*
X13382920Y-11716484D02*
X13363872Y-11716484D01*
X13363872Y-11716484D02*
X13344824Y-11706960D01*
X13344824Y-11706960D02*
X13335301Y-11697436D01*
X13335301Y-11697436D02*
X13325777Y-11678388D01*
X13325777Y-11678388D02*
X13316253Y-11640293D01*
X13316253Y-11640293D02*
X13316253Y-11592674D01*
X13316253Y-11592674D02*
X13325777Y-11554579D01*
X13325777Y-11554579D02*
X13335301Y-11535531D01*
X13335301Y-11535531D02*
X13344824Y-11526008D01*
X13344824Y-11526008D02*
X13363872Y-11516484D01*
X13516253Y-11697436D02*
X13525777Y-11706960D01*
X13525777Y-11706960D02*
X13516253Y-11716484D01*
X13516253Y-11716484D02*
X13506729Y-11706960D01*
X13506729Y-11706960D02*
X13516253Y-11697436D01*
X13516253Y-11697436D02*
X13516253Y-11716484D01*
X13592444Y-11516484D02*
X13716253Y-11516484D01*
X13716253Y-11516484D02*
X13649586Y-11592674D01*
X13649586Y-11592674D02*
X13678158Y-11592674D01*
X13678158Y-11592674D02*
X13697205Y-11602198D01*
X13697205Y-11602198D02*
X13706729Y-11611722D01*
X13706729Y-11611722D02*
X13716253Y-11630769D01*
X13716253Y-11630769D02*
X13716253Y-11678388D01*
X13716253Y-11678388D02*
X13706729Y-11697436D01*
X13706729Y-11697436D02*
X13697205Y-11706960D01*
X13697205Y-11706960D02*
X13678158Y-11716484D01*
X13678158Y-11716484D02*
X13621015Y-11716484D01*
X13621015Y-11716484D02*
X13601967Y-11706960D01*
X13601967Y-11706960D02*
X13592444Y-11697436D01*
X13840063Y-11516484D02*
X13859110Y-11516484D01*
X13859110Y-11516484D02*
X13878158Y-11526008D01*
X13878158Y-11526008D02*
X13887682Y-11535531D01*
X13887682Y-11535531D02*
X13897205Y-11554579D01*
X13897205Y-11554579D02*
X13906729Y-11592674D01*
X13906729Y-11592674D02*
X13906729Y-11640293D01*
X13906729Y-11640293D02*
X13897205Y-11678388D01*
X13897205Y-11678388D02*
X13887682Y-11697436D01*
X13887682Y-11697436D02*
X13878158Y-11706960D01*
X13878158Y-11706960D02*
X13859110Y-11716484D01*
X13859110Y-11716484D02*
X13840063Y-11716484D01*
X13840063Y-11716484D02*
X13821015Y-11706960D01*
X13821015Y-11706960D02*
X13811491Y-11697436D01*
X13811491Y-11697436D02*
X13801967Y-11678388D01*
X13801967Y-11678388D02*
X13792444Y-11640293D01*
X13792444Y-11640293D02*
X13792444Y-11592674D01*
X13792444Y-11592674D02*
X13801967Y-11554579D01*
X13801967Y-11554579D02*
X13811491Y-11535531D01*
X13811491Y-11535531D02*
X13821015Y-11526008D01*
X13821015Y-11526008D02*
X13840063Y-11516484D01*
X14030539Y-11516484D02*
X14049586Y-11516484D01*
X14049586Y-11516484D02*
X14068634Y-11526008D01*
X14068634Y-11526008D02*
X14078158Y-11535531D01*
X14078158Y-11535531D02*
X14087682Y-11554579D01*
X14087682Y-11554579D02*
X14097205Y-11592674D01*
X14097205Y-11592674D02*
X14097205Y-11640293D01*
X14097205Y-11640293D02*
X14087682Y-11678388D01*
X14087682Y-11678388D02*
X14078158Y-11697436D01*
X14078158Y-11697436D02*
X14068634Y-11706960D01*
X14068634Y-11706960D02*
X14049586Y-11716484D01*
X14049586Y-11716484D02*
X14030539Y-11716484D01*
X14030539Y-11716484D02*
X14011491Y-11706960D01*
X14011491Y-11706960D02*
X14001967Y-11697436D01*
X14001967Y-11697436D02*
X13992444Y-11678388D01*
X13992444Y-11678388D02*
X13982920Y-11640293D01*
X13982920Y-11640293D02*
X13982920Y-11592674D01*
X13982920Y-11592674D02*
X13992444Y-11554579D01*
X13992444Y-11554579D02*
X14001967Y-11535531D01*
X14001967Y-11535531D02*
X14011491Y-11526008D01*
X14011491Y-11526008D02*
X14030539Y-11516484D01*
X14182920Y-11716484D02*
X14182920Y-11583150D01*
X14182920Y-11602198D02*
X14192444Y-11592674D01*
X14192444Y-11592674D02*
X14211491Y-11583150D01*
X14211491Y-11583150D02*
X14240063Y-11583150D01*
X14240063Y-11583150D02*
X14259110Y-11592674D01*
X14259110Y-11592674D02*
X14268634Y-11611722D01*
X14268634Y-11611722D02*
X14268634Y-11716484D01*
X14268634Y-11611722D02*
X14278158Y-11592674D01*
X14278158Y-11592674D02*
X14297205Y-11583150D01*
X14297205Y-11583150D02*
X14325777Y-11583150D01*
X14325777Y-11583150D02*
X14344825Y-11592674D01*
X14344825Y-11592674D02*
X14354348Y-11611722D01*
X14354348Y-11611722D02*
X14354348Y-11716484D01*
X14449586Y-11716484D02*
X14449586Y-11583150D01*
X14449586Y-11602198D02*
X14459110Y-11592674D01*
X14459110Y-11592674D02*
X14478158Y-11583150D01*
X14478158Y-11583150D02*
X14506729Y-11583150D01*
X14506729Y-11583150D02*
X14525777Y-11592674D01*
X14525777Y-11592674D02*
X14535301Y-11611722D01*
X14535301Y-11611722D02*
X14535301Y-11716484D01*
X14535301Y-11611722D02*
X14544825Y-11592674D01*
X14544825Y-11592674D02*
X14563872Y-11583150D01*
X14563872Y-11583150D02*
X14592444Y-11583150D01*
X14592444Y-11583150D02*
X14611491Y-11592674D01*
X14611491Y-11592674D02*
X14621015Y-11611722D01*
X14621015Y-11611722D02*
X14621015Y-11716484D01*
X15011491Y-11506960D02*
X14840063Y-11764103D01*
X15268634Y-11516484D02*
X15287682Y-11516484D01*
X15287682Y-11516484D02*
X15306729Y-11526008D01*
X15306729Y-11526008D02*
X15316253Y-11535531D01*
X15316253Y-11535531D02*
X15325777Y-11554579D01*
X15325777Y-11554579D02*
X15335301Y-11592674D01*
X15335301Y-11592674D02*
X15335301Y-11640293D01*
X15335301Y-11640293D02*
X15325777Y-11678388D01*
X15325777Y-11678388D02*
X15316253Y-11697436D01*
X15316253Y-11697436D02*
X15306729Y-11706960D01*
X15306729Y-11706960D02*
X15287682Y-11716484D01*
X15287682Y-11716484D02*
X15268634Y-11716484D01*
X15268634Y-11716484D02*
X15249587Y-11706960D01*
X15249587Y-11706960D02*
X15240063Y-11697436D01*
X15240063Y-11697436D02*
X15230539Y-11678388D01*
X15230539Y-11678388D02*
X15221015Y-11640293D01*
X15221015Y-11640293D02*
X15221015Y-11592674D01*
X15221015Y-11592674D02*
X15230539Y-11554579D01*
X15230539Y-11554579D02*
X15240063Y-11535531D01*
X15240063Y-11535531D02*
X15249587Y-11526008D01*
X15249587Y-11526008D02*
X15268634Y-11516484D01*
X15421015Y-11697436D02*
X15430539Y-11706960D01*
X15430539Y-11706960D02*
X15421015Y-11716484D01*
X15421015Y-11716484D02*
X15411491Y-11706960D01*
X15411491Y-11706960D02*
X15421015Y-11697436D01*
X15421015Y-11697436D02*
X15421015Y-11716484D01*
X15554348Y-11516484D02*
X15573396Y-11516484D01*
X15573396Y-11516484D02*
X15592444Y-11526008D01*
X15592444Y-11526008D02*
X15601968Y-11535531D01*
X15601968Y-11535531D02*
X15611491Y-11554579D01*
X15611491Y-11554579D02*
X15621015Y-11592674D01*
X15621015Y-11592674D02*
X15621015Y-11640293D01*
X15621015Y-11640293D02*
X15611491Y-11678388D01*
X15611491Y-11678388D02*
X15601968Y-11697436D01*
X15601968Y-11697436D02*
X15592444Y-11706960D01*
X15592444Y-11706960D02*
X15573396Y-11716484D01*
X15573396Y-11716484D02*
X15554348Y-11716484D01*
X15554348Y-11716484D02*
X15535301Y-11706960D01*
X15535301Y-11706960D02*
X15525777Y-11697436D01*
X15525777Y-11697436D02*
X15516253Y-11678388D01*
X15516253Y-11678388D02*
X15506729Y-11640293D01*
X15506729Y-11640293D02*
X15506729Y-11592674D01*
X15506729Y-11592674D02*
X15516253Y-11554579D01*
X15516253Y-11554579D02*
X15525777Y-11535531D01*
X15525777Y-11535531D02*
X15535301Y-11526008D01*
X15535301Y-11526008D02*
X15554348Y-11516484D01*
X15811491Y-11716484D02*
X15697206Y-11716484D01*
X15754348Y-11716484D02*
X15754348Y-11516484D01*
X15754348Y-11516484D02*
X15735301Y-11545055D01*
X15735301Y-11545055D02*
X15716253Y-11564103D01*
X15716253Y-11564103D02*
X15697206Y-11573627D01*
X16001968Y-11716484D02*
X15887682Y-11716484D01*
X15944825Y-11716484D02*
X15944825Y-11516484D01*
X15944825Y-11516484D02*
X15925777Y-11545055D01*
X15925777Y-11545055D02*
X15906729Y-11564103D01*
X15906729Y-11564103D02*
X15887682Y-11573627D01*
X16116253Y-11602198D02*
X16097206Y-11592674D01*
X16097206Y-11592674D02*
X16087682Y-11583150D01*
X16087682Y-11583150D02*
X16078158Y-11564103D01*
X16078158Y-11564103D02*
X16078158Y-11554579D01*
X16078158Y-11554579D02*
X16087682Y-11535531D01*
X16087682Y-11535531D02*
X16097206Y-11526008D01*
X16097206Y-11526008D02*
X16116253Y-11516484D01*
X16116253Y-11516484D02*
X16154349Y-11516484D01*
X16154349Y-11516484D02*
X16173396Y-11526008D01*
X16173396Y-11526008D02*
X16182920Y-11535531D01*
X16182920Y-11535531D02*
X16192444Y-11554579D01*
X16192444Y-11554579D02*
X16192444Y-11564103D01*
X16192444Y-11564103D02*
X16182920Y-11583150D01*
X16182920Y-11583150D02*
X16173396Y-11592674D01*
X16173396Y-11592674D02*
X16154349Y-11602198D01*
X16154349Y-11602198D02*
X16116253Y-11602198D01*
X16116253Y-11602198D02*
X16097206Y-11611722D01*
X16097206Y-11611722D02*
X16087682Y-11621246D01*
X16087682Y-11621246D02*
X16078158Y-11640293D01*
X16078158Y-11640293D02*
X16078158Y-11678388D01*
X16078158Y-11678388D02*
X16087682Y-11697436D01*
X16087682Y-11697436D02*
X16097206Y-11706960D01*
X16097206Y-11706960D02*
X16116253Y-11716484D01*
X16116253Y-11716484D02*
X16154349Y-11716484D01*
X16154349Y-11716484D02*
X16173396Y-11706960D01*
X16173396Y-11706960D02*
X16182920Y-11697436D01*
X16182920Y-11697436D02*
X16192444Y-11678388D01*
X16192444Y-11678388D02*
X16192444Y-11640293D01*
X16192444Y-11640293D02*
X16182920Y-11621246D01*
X16182920Y-11621246D02*
X16173396Y-11611722D01*
X16173396Y-11611722D02*
X16154349Y-11602198D01*
X16268634Y-11516484D02*
X16268634Y-11554579D01*
X16344825Y-11516484D02*
X16344825Y-11554579D01*
X16640063Y-11792674D02*
X16630539Y-11783150D01*
X16630539Y-11783150D02*
X16611491Y-11754579D01*
X16611491Y-11754579D02*
X16601968Y-11735531D01*
X16601968Y-11735531D02*
X16592444Y-11706960D01*
X16592444Y-11706960D02*
X16582920Y-11659341D01*
X16582920Y-11659341D02*
X16582920Y-11621246D01*
X16582920Y-11621246D02*
X16592444Y-11573627D01*
X16592444Y-11573627D02*
X16601968Y-11545055D01*
X16601968Y-11545055D02*
X16611491Y-11526008D01*
X16611491Y-11526008D02*
X16630539Y-11497436D01*
X16630539Y-11497436D02*
X16640063Y-11487912D01*
X16821015Y-11716484D02*
X16706730Y-11716484D01*
X16763872Y-11716484D02*
X16763872Y-11516484D01*
X16763872Y-11516484D02*
X16744825Y-11545055D01*
X16744825Y-11545055D02*
X16725777Y-11564103D01*
X16725777Y-11564103D02*
X16706730Y-11573627D01*
X17011492Y-11716484D02*
X16897206Y-11716484D01*
X16954349Y-11716484D02*
X16954349Y-11516484D01*
X16954349Y-11516484D02*
X16935301Y-11545055D01*
X16935301Y-11545055D02*
X16916253Y-11564103D01*
X16916253Y-11564103D02*
X16897206Y-11573627D01*
X17249587Y-11716484D02*
X17249587Y-11516484D01*
X17335301Y-11716484D02*
X17335301Y-11611722D01*
X17335301Y-11611722D02*
X17325777Y-11592674D01*
X17325777Y-11592674D02*
X17306730Y-11583150D01*
X17306730Y-11583150D02*
X17278158Y-11583150D01*
X17278158Y-11583150D02*
X17259111Y-11592674D01*
X17259111Y-11592674D02*
X17249587Y-11602198D01*
X17459111Y-11716484D02*
X17440063Y-11706960D01*
X17440063Y-11706960D02*
X17430539Y-11697436D01*
X17430539Y-11697436D02*
X17421015Y-11678388D01*
X17421015Y-11678388D02*
X17421015Y-11621246D01*
X17421015Y-11621246D02*
X17430539Y-11602198D01*
X17430539Y-11602198D02*
X17440063Y-11592674D01*
X17440063Y-11592674D02*
X17459111Y-11583150D01*
X17459111Y-11583150D02*
X17487682Y-11583150D01*
X17487682Y-11583150D02*
X17506730Y-11592674D01*
X17506730Y-11592674D02*
X17516254Y-11602198D01*
X17516254Y-11602198D02*
X17525777Y-11621246D01*
X17525777Y-11621246D02*
X17525777Y-11678388D01*
X17525777Y-11678388D02*
X17516254Y-11697436D01*
X17516254Y-11697436D02*
X17506730Y-11706960D01*
X17506730Y-11706960D02*
X17487682Y-11716484D01*
X17487682Y-11716484D02*
X17459111Y-11716484D01*
X17640063Y-11716484D02*
X17621015Y-11706960D01*
X17621015Y-11706960D02*
X17611492Y-11687912D01*
X17611492Y-11687912D02*
X17611492Y-11516484D01*
X17792444Y-11706960D02*
X17773396Y-11716484D01*
X17773396Y-11716484D02*
X17735301Y-11716484D01*
X17735301Y-11716484D02*
X17716254Y-11706960D01*
X17716254Y-11706960D02*
X17706730Y-11687912D01*
X17706730Y-11687912D02*
X17706730Y-11611722D01*
X17706730Y-11611722D02*
X17716254Y-11592674D01*
X17716254Y-11592674D02*
X17735301Y-11583150D01*
X17735301Y-11583150D02*
X17773396Y-11583150D01*
X17773396Y-11583150D02*
X17792444Y-11592674D01*
X17792444Y-11592674D02*
X17801968Y-11611722D01*
X17801968Y-11611722D02*
X17801968Y-11630769D01*
X17801968Y-11630769D02*
X17706730Y-11649817D01*
X17878158Y-11706960D02*
X17897206Y-11716484D01*
X17897206Y-11716484D02*
X17935301Y-11716484D01*
X17935301Y-11716484D02*
X17954349Y-11706960D01*
X17954349Y-11706960D02*
X17963873Y-11687912D01*
X17963873Y-11687912D02*
X17963873Y-11678388D01*
X17963873Y-11678388D02*
X17954349Y-11659341D01*
X17954349Y-11659341D02*
X17935301Y-11649817D01*
X17935301Y-11649817D02*
X17906730Y-11649817D01*
X17906730Y-11649817D02*
X17887682Y-11640293D01*
X17887682Y-11640293D02*
X17878158Y-11621246D01*
X17878158Y-11621246D02*
X17878158Y-11611722D01*
X17878158Y-11611722D02*
X17887682Y-11592674D01*
X17887682Y-11592674D02*
X17906730Y-11583150D01*
X17906730Y-11583150D02*
X17935301Y-11583150D01*
X17935301Y-11583150D02*
X17954349Y-11592674D01*
X18030539Y-11792674D02*
X18040063Y-11783150D01*
X18040063Y-11783150D02*
X18059111Y-11754579D01*
X18059111Y-11754579D02*
X18068635Y-11735531D01*
X18068635Y-11735531D02*
X18078158Y-11706960D01*
X18078158Y-11706960D02*
X18087682Y-11659341D01*
X18087682Y-11659341D02*
X18087682Y-11621246D01*
X18087682Y-11621246D02*
X18078158Y-11573627D01*
X18078158Y-11573627D02*
X18068635Y-11545055D01*
X18068635Y-11545055D02*
X18059111Y-11526008D01*
X18059111Y-11526008D02*
X18040063Y-11497436D01*
X18040063Y-11497436D02*
X18030539Y-11487912D01*
M02*
